<!--?xml version="1.0" encoding="utf-8"?-->
<!-- Generator: Adobe Illustrator 18.0.0, SVG Export Plug-In . SVG Version: 6.00 Build 0)  -->

<svg version="1.1" id="_x31_0" xmlns="http://www.w3.org/2000/svg" xmlns:xlink="http://www.w3.org/1999/xlink" x="0px" y="0px" viewBox="0 0 512 512" style="width: 32px; height: 32px; opacity: 1;" xml:space="preserve">
<style type="text/css">
	.st0{fill:#374149;}
</style>
<g>
	<path class="st0" d="M317.902,504.43c1.242-0.309,2.465-0.668,3.699-0.992c2.707-0.715,5.41-1.43,8.098-2.235
		c1.57-0.469,3.122-1,4.684-1.5c2.359-0.758,4.726-1.504,7.07-2.332c1.614-0.57,3.203-1.203,4.801-1.805
		c2.294-0.859,4.586-1.707,6.856-2.637c1.438-0.59,2.848-1.234,4.27-1.848c2.442-1.05,4.879-2.098,7.294-3.226
		c1.055-0.496,2.09-1.035,3.141-1.547c2.762-1.34,5.516-2.695,8.239-4.141c0.531-0.281,1.046-0.59,1.574-0.875
		c21.228-11.469,41.198-26.099,59.152-44.002c18.001-17.946,32.721-37.931,44.26-59.182c0.278-0.508,0.574-1.004,0.848-1.512
		c1.454-2.715,2.813-5.469,4.157-8.223c0.515-1.054,1.062-2.094,1.566-3.153c1.125-2.394,2.168-4.816,3.218-7.234
		c0.626-1.442,1.286-2.867,1.883-4.317c0.922-2.234,1.758-4.492,2.614-6.746c0.621-1.641,1.278-3.27,1.863-4.922
		c0.832-2.328,1.574-4.68,2.332-7.027c0.508-1.57,1.051-3.13,1.528-4.711c0.832-2.758,1.574-5.54,2.312-8.317
		c0.305-1.165,0.653-2.313,0.946-3.481c0.922-3.688,1.746-7.391,2.504-11.11c0.051-0.25,0.114-0.496,0.164-0.746
		c6.653-33.139,6.7-67.336,0.145-100.498c-0.043-0.21-0.098-0.418-0.137-0.629c-0.754-3.758-1.578-7.504-2.5-11.231
		c-0.286-1.152-0.622-2.285-0.918-3.43c-0.734-2.797-1.469-5.59-2.297-8.364c-0.477-1.586-1.016-3.152-1.519-4.73
		c-0.754-2.348-1.489-4.699-2.309-7.028c-0.578-1.641-1.223-3.254-1.833-4.879c-0.855-2.274-1.691-4.55-2.613-6.801
		c-0.594-1.45-1.246-2.875-1.864-4.309c-1.042-2.426-2.082-4.856-3.203-7.254c-0.496-1.054-1.035-2.09-1.546-3.137
		c-1.344-2.774-2.7-5.539-4.153-8.274c-0.25-0.472-0.527-0.937-0.782-1.41c-11.489-21.318-26.166-41.374-44.139-59.402
		c-17.997-18.044-38.033-32.795-59.346-44.35c-0.485-0.266-0.962-0.551-1.45-0.813c-2.684-1.434-5.406-2.774-8.13-4.102
		c-1.098-0.539-2.176-1.106-3.278-1.629c-2.312-1.086-4.652-2.09-6.992-3.106c-1.524-0.664-3.036-1.364-4.574-1.997
		c-2.141-0.878-4.306-1.675-6.466-2.496c-1.734-0.66-3.461-1.355-5.211-1.977c-2.246-0.797-4.516-1.508-6.778-2.238
		c-1.66-0.539-3.301-1.11-4.973-1.613c-2.77-0.836-5.563-1.574-8.356-2.313c-1.153-0.305-2.29-0.649-3.45-0.938
		c-36.803-9.192-75.246-10.094-112.382-2.723c-0.359,0.07-0.718,0.164-1.078,0.234c-3.602,0.734-7.196,1.524-10.766,2.41
		c-1.118,0.274-2.219,0.602-3.332,0.891c-2.833,0.746-5.657,1.496-8.466,2.336c-1.465,0.438-2.906,0.934-4.359,1.398
		c-2.47,0.789-4.942,1.57-7.391,2.434c-1.516,0.539-3.008,1.133-4.516,1.699c-2.387,0.894-4.778,1.778-7.141,2.746
		c-1.348,0.554-2.672,1.16-4.008,1.734c-2.524,1.086-5.051,2.168-7.548,3.34c-0.976,0.457-1.938,0.961-2.906,1.434
		c-2.843,1.375-5.676,2.77-8.477,4.258c-0.449,0.238-0.886,0.5-1.336,0.742c-21.298,11.486-41.338,26.15-59.351,44.112
		C-24.875,174.541-25.114,336.64,74.72,436.766c17.974,18.021,37.982,32.756,59.262,44.303c0.519,0.282,1.027,0.586,1.546,0.863
		c2.661,1.422,5.36,2.75,8.063,4.07c1.118,0.547,2.215,1.13,3.34,1.657c2.309,1.09,4.649,2.09,6.985,3.106
		c1.523,0.664,3.031,1.359,4.57,1.992c2.157,0.887,4.336,1.692,6.512,2.52c1.719,0.652,3.426,1.336,5.161,1.953
		c2.262,0.805,4.539,1.516,6.817,2.254c1.648,0.531,3.282,1.102,4.938,1.602c2.805,0.844,5.633,1.594,8.458,2.34
		c1.114,0.293,2.215,0.625,3.332,0.906c36.795,9.196,75.227,10.102,112.354,2.738c0.503-0.102,0.996-0.226,1.496-0.328
		C311.014,506.036,314.468,505.281,317.902,504.43z M391.59,391.967c-74.977,74.758-196.793,74.578-271.546-0.39
		c-74.754-74.974-74.578-196.793,0.394-271.546c74.973-74.754,196.792-74.578,271.546,0.394
		C466.738,195.393,466.562,317.209,391.59,391.967z" style="fill: rgb(75, 75, 75);"></path>
	<path class="st0" d="M364.197,208.382c6.954-6.93,6.97-18.188,0.039-25.142l-35.15-35.252c-6.934-6.95-18.192-6.966-25.142-0.035
		l-42.295,42.17c-3.063,3.054-8.024,3.047-11.079-0.016l-42.17-42.295c-6.934-6.95-18.192-6.965-25.142-0.035l-35.252,35.15
		c-6.954,6.93-6.97,18.189-0.039,25.142l42.174,42.295c3.054,3.062,3.047,8.024-0.016,11.078l-49.338,49.19
		c-3.062,3.055-3.07,8.016-0.016,11.078l49.194,49.339c3.055,3.062,8.016,3.07,11.079,0.015l49.334-49.194
		c3.062-3.055,8.024-3.047,11.078,0.015l42.174,42.295c6.93,6.95,18.189,6.97,25.138,0.035l35.256-35.15
		c6.95-6.93,6.965-18.188,0.035-25.142l-42.17-42.291c-3.055-3.067-3.047-8.028,0.015-11.079L364.197,208.382z" style="fill: rgb(75, 75, 75);"></path>
</g>
</svg>
