<!--?xml version="1.0" encoding="utf-8"?-->
<!-- Generator: Adobe Illustrator 18.0.0, SVG Export Plug-In . SVG Version: 6.00 Build 0)  -->

<svg version="1.1" id="_x31_0" xmlns="http://www.w3.org/2000/svg" xmlns:xlink="http://www.w3.org/1999/xlink" x="0px" y="0px" viewBox="0 0 512 512" style="width: 32px; height: 32px; opacity: 1;" xml:space="preserve">
<style type="text/css">
	.st0{fill:#374149;}
</style>
<g>
	<path class="st0" d="M317.923,504.437c1.172-0.289,2.324-0.633,3.488-0.938c2.778-0.73,5.552-1.465,8.31-2.29
		c1.512-0.453,3.001-0.969,4.505-1.449c2.422-0.774,4.844-1.535,7.243-2.383c1.55-0.551,3.074-1.157,4.614-1.734
		c2.359-0.887,4.727-1.762,7.063-2.719c1.359-0.558,2.692-1.168,4.039-1.746c2.512-1.082,5.028-2.16,7.513-3.325
		c0.988-0.465,1.961-0.973,2.946-1.449c2.829-1.375,5.653-2.762,8.438-4.243c0.465-0.25,0.914-0.515,1.375-0.766
		c21.287-11.482,41.317-26.143,59.319-44.094c18.006-17.951,32.722-37.934,44.266-59.19c0.274-0.504,0.57-1,0.844-1.504
		c1.45-2.715,2.809-5.47,4.157-8.223c0.515-1.055,1.062-2.098,1.566-3.161c1.129-2.391,2.168-4.809,3.215-7.227
		c0.629-1.442,1.289-2.868,1.887-4.321c0.926-2.246,1.77-4.52,2.629-6.786c0.618-1.625,1.266-3.238,1.848-4.879
		c0.836-2.348,1.586-4.719,2.352-7.086c0.5-1.551,1.035-3.086,1.504-4.646c0.844-2.785,1.59-5.59,2.332-8.395
		c0.301-1.137,0.641-2.262,0.926-3.406c0.938-3.75,1.782-7.521,2.547-11.298c0.035-0.183,0.082-0.363,0.122-0.547
		c6.653-33.148,6.704-67.354,0.144-100.526c-0.038-0.207-0.09-0.41-0.133-0.617c-0.754-3.762-1.578-7.513-2.5-11.244
		c-0.281-1.141-0.617-2.266-0.914-3.402c-0.734-2.809-1.473-5.614-2.309-8.399c-0.465-1.57-1-3.11-1.496-4.669
		c-0.758-2.367-1.5-4.738-2.328-7.086c-0.578-1.637-1.219-3.25-1.829-4.872c-0.855-2.274-1.691-4.547-2.614-6.802
		c-0.59-1.45-1.242-2.871-1.863-4.309c-1.047-2.43-2.082-4.86-3.207-7.262c-0.493-1.047-1.028-2.074-1.536-3.114
		c-1.343-2.778-2.703-5.548-4.156-8.282c-0.258-0.492-0.543-0.969-0.809-1.458c-11.486-21.302-26.155-41.348-44.118-59.362
		c-17.974-18.03-37.993-32.77-59.28-44.318c-0.516-0.281-1.016-0.582-1.531-0.855c-2.657-1.418-5.352-2.746-8.052-4.067
		c-1.121-0.546-2.222-1.129-3.352-1.664c-2.282-1.07-4.59-2.059-6.899-3.063c-1.558-0.679-3.102-1.394-4.676-2.039
		c-2.102-0.863-4.223-1.645-6.341-2.45c-1.778-0.675-3.543-1.386-5.336-2.023c-2.211-0.786-4.446-1.485-6.673-2.207
		c-1.692-0.547-3.368-1.133-5.071-1.645c-2.722-0.821-5.466-1.543-8.208-2.27c-1.203-0.321-2.394-0.68-3.606-0.981
		c-36.797-9.189-75.231-10.091-112.36-2.719c-0.386,0.074-0.77,0.172-1.156,0.25c-3.579,0.726-7.15,1.511-10.701,2.394
		c-1.121,0.278-2.23,0.602-3.348,0.894c-2.825,0.742-5.645,1.493-8.446,2.333c-1.484,0.442-2.946,0.946-4.414,1.418
		c-2.45,0.782-4.895,1.551-7.325,2.41c-1.543,0.547-3.063,1.153-4.594,1.727c-2.364,0.886-4.731,1.762-7.075,2.723
		c-1.359,0.558-2.695,1.168-4.047,1.75c-2.512,1.078-5.02,2.157-7.505,3.321c-0.996,0.469-1.973,0.981-2.965,1.462
		c-2.821,1.367-5.634,2.75-8.411,4.226c-0.481,0.254-0.946,0.531-1.418,0.79c-21.276,11.478-41.294,26.132-59.288,44.075
		c-18.014,17.958-32.738,37.957-44.286,59.225c-0.266,0.493-0.555,0.973-0.817,1.466c-1.465,2.734-2.832,5.508-4.192,8.286
		c-0.504,1.031-1.039,2.051-1.531,3.09c-1.137,2.41-2.188,4.852-3.246,7.294c-0.618,1.422-1.266,2.829-1.859,4.262
		c-0.926,2.246-1.77,4.52-2.63,6.79c-0.618,1.626-1.266,3.242-1.852,4.883c-0.832,2.34-1.578,4.704-2.34,7.063
		c-0.504,1.559-1.043,3.102-1.516,4.669c-0.843,2.794-1.594,5.61-2.34,8.426c-0.297,1.126-0.633,2.235-0.914,3.368
		c-0.938,3.742-1.778,7.509-2.543,11.286c-0.039,0.191-0.09,0.375-0.126,0.566c-6.657,33.148-6.707,67.351-0.148,100.522
		c0.042,0.207,0.094,0.406,0.133,0.614c0.754,3.758,1.578,7.509,2.5,11.239c0.289,1.161,0.629,2.31,0.93,3.466
		c0.731,2.786,1.466,5.575,2.294,8.341c0.473,1.582,1.008,3.145,1.512,4.715c0.754,2.352,1.488,4.704,2.313,7.036
		c0.578,1.645,1.222,3.266,1.84,4.895c0.851,2.27,1.687,4.539,2.606,6.79c0.59,1.446,1.238,2.864,1.859,4.298
		c1.043,2.43,2.082,4.864,3.208,7.266c0.492,1.05,1.031,2.082,1.539,3.126c1.347,2.774,2.703,5.543,4.157,8.278
		c0.258,0.485,0.538,0.958,0.797,1.438c11.486,21.311,26.159,41.36,44.13,59.382c17.998,18.049,38.043,32.805,59.362,44.361
		c0.48,0.262,0.949,0.543,1.43,0.801c2.699,1.442,5.438,2.79,8.181,4.13c1.074,0.527,2.137,1.086,3.218,1.598
		c2.348,1.106,4.723,2.122,7.099,3.153c1.488,0.648,2.961,1.328,4.465,1.946c2.184,0.902,4.395,1.714,6.598,2.55
		c1.696,0.645,3.371,1.321,5.079,1.926c2.285,0.813,4.594,1.535,6.899,2.282c1.617,0.523,3.222,1.082,4.852,1.574
		c2.844,0.855,5.703,1.614,8.563,2.367c1.082,0.286,2.149,0.61,3.23,0.879c36.809,9.2,75.258,10.106,112.399,2.734
		c0.422-0.086,0.84-0.187,1.262-0.274C310.879,506.082,314.411,505.308,317.923,504.437z M190.124,250.363l-42.173-42.294
		c-6.934-6.954-6.919-18.213,0.035-25.143l35.254-35.152c6.954-6.93,18.213-6.915,25.143,0.039l42.173,42.294
		c3.055,3.066,8.017,3.07,11.079,0.015l42.298-42.172c6.954-6.934,18.21-6.919,25.144,0.034l35.152,35.254
		c6.93,6.954,6.918,18.213-0.035,25.143l-42.298,42.177c-3.063,3.054-3.074,8.012-0.016,11.079l42.173,42.294
		c6.93,6.954,6.915,18.213-0.039,25.143l-35.25,35.153c-6.954,6.934-18.213,6.914-25.143-0.035l-42.177-42.298
		c-3.055-3.067-8.013-3.071-11.075-0.016l-49.342,49.197c-3.063,3.055-8.024,3.047-11.079-0.019l-49.193-49.334
		c-3.059-3.067-3.051-8.028,0.011-11.083l49.342-49.197C193.171,258.387,193.178,253.429,190.124,250.363z" style="fill: rgb(75, 75, 75);"></path>
</g>
</svg>
