<!--?xml version="1.0" encoding="utf-8"?-->
<!-- Generator: Adobe Illustrator 22.1.0, SVG Export Plug-In . SVG Version: 6.00 Build 0)  -->
<svg version="1.1" id="_x31__1_" xmlns="http://www.w3.org/2000/svg" xmlns:xlink="http://www.w3.org/1999/xlink" x="0px" y="0px" viewBox="0 0 800 774.038" style="width: 50px;" xml:space="preserve">
<style type="text/css">
	.st0{fill:#040000;}
</style>
<g>
	<path class="st0" d="M511.799,2.381c-15.051-1.257-29.587,0.184-43.203,3.869C459.551,8.697,456,19.531,461.65,27.006
		c21.002,27.79,33.488,62.351,33.488,99.792c0,37.44-12.486,72-33.486,99.79c-5.664,7.494-2.07,18.324,6.998,20.773
		c10.365,2.8,21.261,4.3,32.511,4.3c71.471,0,128.915-60.047,124.638-132.444C622.175,57.866,573.044,7.494,511.799,2.381z" style="fill: rgb(255, 255, 255); opacity: 1;"></path>
	
		<ellipse transform="matrix(0.1407 -0.99 0.99 0.1407 131.2498 404.8199)" class="st0" cx="298.839" cy="126.798" rx="124.863" ry="124.862" style="fill: rgb(255, 255, 255); opacity: 1;"></ellipse>
	<path class="st0" d="M791.27,509.219c-5.535-121.643-130.69-176.268-235.14-190.361c-8.109-1.094-12.055,9.695-5.088,13.986
		c60.338,37.157,105.621,93.674,109.3,174.508c2.933,64.457,5.463,163.232,6.768,264.22l0.007,0.532H798
		C796.749,675.275,794.277,575.283,791.27,509.219z" style="fill: rgb(255, 255, 255); opacity: 1;"></path>
	<path class="st0" d="M102.437,772.103l2.98-94.623c2.066-9.895,16.63-8.388,16.63,1.717l2.997,92.906h347.588l2.996-92.906
		c0-10.106,14.564-11.612,16.63-1.717l2.98,94.623h100.437c-1.251-96.828-3.723-196.82-6.729-262.884
		c-6.56-144.15-181.107-194.198-290.11-194.198c-109.004,0-283.55,50.048-290.109,194.198C5.723,575.283,3.251,675.275,2,772.103
		H102.437z" style="fill: rgb(255, 255, 255); opacity: 1;"></path>
</g>
</svg>
