<!--?xml version="1.0" encoding="utf-8"?-->
<!-- Generator: Adobe Illustrator 18.1.1, SVG Export Plug-In . SVG Version: 6.00 Build 0)  -->

<svg version="1.1" id="_x31_0" xmlns="http://www.w3.org/2000/svg" xmlns:xlink="http://www.w3.org/1999/xlink" x="0px" y="0px" viewBox="0 0 512 512" style="width: 16px; height: 16px; opacity: 1;" xml:space="preserve">
<style type="text/css">
	.st0{fill:#ffffff;} 
</style>
<g>
	<path class="st0" d="M440.668,19.904c-4.77-0.785-9.375-1.164-14.07-1.164H85.41c-47.082,0-85.394,38.313-85.394,85.398v35.902H0
		v267.828c0,47.086,38.305,85.39,85.383,85.39H426.59c47.086,0,85.391-38.304,85.391-85.39V191.44H512v-87.301
		C512,62.228,482.016,26.807,440.668,19.904z M252.282,72.162l-44.84,65.902h-41.558l-22.821-0.046l44.84-65.902h41.289
		L252.282,72.162z M369.645,72.162l-44.844,65.902h-41.543l-22.816-0.046l44.843-65.902h41.278L369.645,72.162z M53.375,193.412
		h402.84l2.39,0.004v214.453c0,17.656-14.363,32.016-32.016,32.016H85.383c-17.653,0-32.008-14.36-32.008-32.016V193.412z
		 M458.625,138.064h-52.152l-28.668-0.046l44.855-65.902h3.938c17.656,0,32.027,14.367,32.027,32.023v33.797V138.064z
		 M134.922,72.162l-44.894,65.902H53.39v-33.926c0-17.656,14.363-32.023,32.02-32.023h31.781L134.922,72.162z" ></path>
	<path class="st0" d="M217.246,375.272l98.332-56.774c5.988-3.457,5.988-12.102,0-15.558l-98.332-56.774
		c-5.989-3.457-13.473,0.867-13.473,7.782v113.543C203.774,374.408,211.258,378.728,217.246,375.272z" ></path>
</g>
</svg>
