<!--?xml version="1.0" encoding="utf-8"?-->
<!-- Generator: Adobe Illustrator 22.1.0, SVG Export Plug-In . SVG Version: 6.00 Build 0)  -->
<svg version="1.1" id="_x35_" xmlns="http://www.w3.org/2000/svg" xmlns:xlink="http://www.w3.org/1999/xlink" x="0px" y="0px" viewBox="0 0 711.005 800" style="width: 50px;" xml:space="preserve">
<style type="text/css">
	.st0{fill:#040000;}
</style>
<g>
	<path class="st0" d="M205.881,90.899v6.774v133.712v293.321c0,24.9-17.653,46.35-42.112,51.018
		c-14.501,2.767-31.329,6.508-48.11,11.401C36.976,610.065-0.977,656.995,1.933,715.195c3.688,73.773,89.033,91.971,154.817,78.911
		c65.784-13.059,112.836-67.845,112.836-133.352c0-16.06,0-187.191,0-336.619l375.937-66.395v185.638
		c0,24.9-17.653,46.35-42.112,51.017c-14.501,2.768-31.329,6.509-48.11,11.401c-78.684,22.941-116.637,69.871-113.727,128.07
		c3.688,73.775,89.034,91.971,154.817,78.911c65.783-13.06,112.836-67.845,112.836-133.351c0-23.562,0-324.968,0-436.939
		c0-25.774,0-41.514,0-41.514V2L205.881,90.899z M645.523,208.847l-375.937,66.395c0-19.276,0-37.787,0-55.108l375.937-66.396
		V208.847z" style="fill: rgb(255, 255, 255);"></path>
</g>
</svg>
