<!--?xml version="1.0" encoding="utf-8"?-->
<!-- Generator: Adobe Illustrator 18.1.1, SVG Export Plug-In . SVG Version: 6.00 Build 0)  -->

<svg version="1.1" id="_x31_0" xmlns="http://www.w3.org/2000/svg" xmlns:xlink="http://www.w3.org/1999/xlink" x="0px" y="0px" viewBox="0 0 512 512" style="width: 32px; height: 32px; opacity: 1;" xml:space="preserve">
<style type="text/css">
	.st0{fill:#374149;}
</style>
<g>
	<path class="st0" d="M486.411,118.802c-4.762-12.576-19.669-25.278-32.246-27.888c-136.801-22.192-259.14-22.256-396.328,0
		c-12.577,2.61-27.484,15.312-32.246,27.888c-34.124,88.434-34.118,185.961,0,274.394c4.762,12.577,19.67,25.278,32.246,27.888
		c137.188,22.256,259.527,22.196,396.328,0.004c12.577-2.614,27.483-15.315,32.246-27.892
		C520.528,304.759,520.531,207.236,486.411,118.802z M335.847,264.571c-44.104,25.17-66.67,38.502-109.29,63.439
		c-6.493,3.845-14.776-1.096-14.954-8.822c-1.163-50.55-1.163-75.827,0-126.379c0.178-7.724,8.462-12.665,14.954-8.887
		c42.62,24.961,65.186,38.31,109.29,63.506C342.564,251.242,342.564,260.756,335.847,264.571z" style="fill: rgb(255, 255, 255);"></path>
</g>
</svg>
